<svg xml:space="preserve" viewBox="0 0 105.80000000000001 106.07734806629836" width="105.80000000000001" y="0px" x="0px" xmlns:xlink="http://www.w3.org/1999/xlink" xmlns="http://www.w3.org/2000/svg" id="Layer_1" version="1.1" style="max-height: 500px" height="106.07734806629836">
<path d="M389.000000,97.000000 &#10;&#9;C259.333374,97.000000 130.166748,97.000000 1.000087,97.000000 &#10;&#9;C1.000058,65.000046 1.000058,33.000095 1.000029,1.000108 &#10;&#9;C177.333237,1.000072 353.666473,1.000072 529.999756,1.000036 &#10;&#9;C529.999878,32.999889 529.999878,64.999779 529.999939,96.999832 &#10;&#9;C483.166656,97.000000 436.333344,97.000000 389.000000,97.000000 &#10;M112.922318,26.977201 &#10;&#9;C110.830788,26.977201 108.739258,26.977201 106.573822,26.977201 &#10;&#9;C106.573822,39.865078 106.573822,52.135342 106.573822,64.870522 &#10;&#9;C108.360252,64.770470 109.876434,64.685555 111.845627,64.575272 &#10;&#9;C111.845627,54.923775 111.845627,45.755131 111.845627,36.586487 &#10;&#9;C116.194397,44.989658 119.626839,53.556103 123.242073,62.044701 &#10;&#9;C123.728966,63.187931 125.151802,64.684097 126.112732,64.663834 &#10;&#9;C127.085785,64.643326 128.398087,63.109814 128.912704,61.950813 &#10;&#9;C131.337006,56.490925 133.541931,50.933514 135.817841,45.407894 &#10;&#9;C137.010422,42.512440 138.188019,39.610813 139.372391,36.711975 &#10;&#9;C139.785934,36.838535 140.199463,36.965092 140.613007,37.091648 &#10;&#9;C140.613007,46.216187 140.613007,55.340725 140.613007,64.910339 &#10;&#9;C142.561478,64.785294 144.089203,64.687248 145.581726,64.591469 &#10;&#9;C145.581726,51.805611 145.581726,39.541870 145.581726,27.211166 &#10;&#9;C142.896149,27.211166 140.477219,27.211166 138.008102,27.211166 &#10;&#9;C134.130341,36.422161 130.331573,45.445522 126.205383,55.246601 &#10;&#9;C121.766968,45.236485 117.753075,36.183796 112.922318,26.977201 &#10;M61.024349,51.362881 &#10;&#9;C60.426712,52.127808 59.829071,52.892731 59.216919,53.676239 &#10;&#9;C66.994682,57.941856 77.018684,55.657654 82.998398,48.357750 &#10;&#9;C88.999458,41.031788 88.939819,29.915592 82.859772,22.520519 &#10;&#9;C76.757477,15.098392 66.993683,12.882600 59.336792,17.182222 &#10;&#9;C68.177956,29.428938 68.778397,38.802025 61.024349,51.362881 &#10;M23.490879,42.256111 &#10;&#9;C35.520836,33.242851 47.339951,34.168823 58.875919,43.272198 &#10;&#9;C62.625927,34.714756 60.463585,25.775555 53.367699,19.761465 &#10;&#9;C46.516491,13.954751 36.624924,13.371164 29.310671,18.342144 &#10;&#9;C21.643934,23.552685 18.227654,32.664028 20.954088,40.967342 &#10;&#9;C21.202656,41.724350 22.269320,42.212738 23.490879,42.256111 &#10;M20.145750,64.094994 &#10;&#9;C23.458620,79.044746 36.967587,86.817215 48.255447,80.055542 &#10;&#9;C43.733955,74.859940 40.455734,68.738266 41.365917,61.967415 &#10;&#9;C42.236202,55.493340 45.015244,49.275848 46.970768,42.895119 &#10;&#9;C33.210480,38.346367 20.090372,47.737778 20.145750,64.094994 &#10;M80.665634,77.210403 &#10;&#9;C87.723724,69.873619 89.345078,62.269596 85.495781,54.244156 &#10;&#9;C73.206291,64.231697 60.795021,63.823734 48.473484,54.140327 &#10;&#9;C45.167385,64.280472 47.675774,73.068100 55.163471,78.591187 &#10;&#9;C62.370735,83.907410 71.981934,83.565224 80.665634,77.210403 &#10;M494.262909,64.628204 &#10;&#9;C498.187042,64.117844 502.111176,63.607479 507.176331,62.948715 &#10;&#9;C505.723175,65.767937 504.914581,69.800819 502.470764,71.553040 &#10;&#9;C497.721710,74.958099 492.755493,72.625397 488.166321,69.189369 &#10;&#9;C487.144470,70.520821 486.212952,71.734566 485.057556,73.240059 &#10;&#9;C486.890411,74.382050 488.198151,75.410713 489.669617,76.078880 &#10;&#9;C498.930847,80.284203 510.289520,75.478111 510.875488,66.660057 &#10;&#9;C511.466461,57.766449 511.005676,48.802944 511.005676,38.844208 &#10;&#9;C508.687653,39.736515 507.003387,40.384861 504.926880,41.184196 &#10;&#9;C503.331451,40.618046 500.944794,39.272255 498.435059,38.978703 &#10;&#9;C492.152161,38.243828 486.848572,42.035130 485.204773,47.910404 &#10;&#9;C483.177856,55.155155 486.083923,60.877258 494.262909,64.628204 &#10;M191.807632,62.637943 &#10;&#9;C197.328934,66.205124 203.764023,65.954910 207.849670,62.014217 &#10;&#9;C212.277634,57.743359 213.686340,50.178703 209.918182,45.103443 &#10;&#9;C207.863861,42.336533 204.167221,39.883217 200.831039,39.229771 &#10;&#9;C197.526535,38.582527 193.744171,40.374924 189.826233,41.167053 &#10;&#9;C189.826233,35.811451 189.826233,30.217291 189.826233,24.623131 &#10;&#9;C189.435211,24.347702 189.044174,24.072271 188.653152,23.796841 &#10;&#9;C187.523819,24.860174 185.432281,25.905695 185.412231,26.989571 &#10;&#9;C185.181473,39.452751 185.265137,51.921757 185.265137,64.389214 &#10;&#9;C185.669464,64.749039 186.073807,65.108864 186.478134,65.468689 &#10;&#9;C188.031998,64.381226 189.585846,63.293762 191.807632,62.637943 &#10;M400.594147,41.794724 &#10;&#9;C394.912292,37.313351 389.269867,38.134647 384.992981,41.202572 &#10;&#9;C382.414734,40.326077 380.822021,39.784618 378.775421,39.088856 &#10;&#9;C378.775421,53.182941 378.775421,66.258804 378.775421,79.494858 &#10;&#9;C380.321686,79.494858 381.660675,79.494858 383.269531,79.494858 &#10;&#9;C383.269531,76.333328 383.269531,73.522430 383.269531,70.711533 &#10;&#9;C383.269531,67.870255 383.269531,65.028969 383.269531,61.534748 &#10;&#9;C391.839813,68.735542 403.750458,64.780785 404.653076,54.221226 &#10;&#9;C404.981628,50.377758 402.404266,46.285896 400.594147,41.794724 &#10;M436.060028,58.364029 &#10;&#9;C438.549927,51.472946 437.368561,45.226940 432.870056,41.498463 &#10;&#9;C428.495789,37.873028 422.913269,38.039932 417.709045,41.182709 &#10;&#9;C415.000427,40.316624 413.274078,39.764626 411.216644,39.106762 &#10;&#9;C411.216644,53.235485 411.216644,66.309990 411.216644,79.581413 &#10;&#9;C412.794189,79.581413 414.163452,79.581413 415.932343,79.581413 &#10;&#9;C415.932343,76.524811 415.932343,73.729591 415.932343,70.934372 &#10;&#9;C415.932343,68.061714 415.932343,65.189049 415.932343,61.984009 &#10;&#9;C424.444672,67.318726 430.632996,66.261803 436.060028,58.364029 &#10;M307.158752,33.614151 &#10;&#9;C308.244049,32.619965 309.329346,31.625778 310.621887,30.441772 &#10;&#9;C305.937744,25.539127 300.523376,25.083969 294.822052,26.858990 &#10;&#9;C290.127899,28.320440 287.258911,31.726238 287.072937,36.759296 &#10;&#9;C286.886475,41.805717 289.434753,45.264427 294.146820,47.087021 &#10;&#9;C296.776978,48.104336 299.600311,48.778606 301.997284,50.185547 &#10;&#9;C303.508667,51.072697 305.492828,53.192276 305.302734,54.466278 &#10;&#9;C305.012360,56.412605 303.415619,58.807659 301.683533,59.768730 &#10;&#9;C297.332245,62.183060 293.456085,60.114456 289.956116,56.975487 &#10;&#9;C288.657074,58.297661 287.469421,59.506424 286.283325,60.713657 &#10;&#9;C291.265503,65.710175 297.673340,67.289185 303.727722,64.745277 &#10;&#9;C308.207733,62.862896 310.845642,59.408508 311.020752,54.364025 &#10;&#9;C311.187317,49.565754 308.807953,46.527996 304.437622,44.888119 &#10;&#9;C301.797729,43.897556 298.840912,43.378815 296.597107,41.824390 &#10;&#9;C294.828674,40.599297 292.805237,38.017166 292.962585,36.218643 &#10;&#9;C293.122528,34.390697 295.773010,31.425489 297.406036,31.376060 &#10;&#9;C300.400482,31.285427 303.448730,32.972034 307.158752,33.614151 &#10;M317.244568,29.784441 &#10;&#9;C317.244568,41.377285 317.244568,52.970127 317.244568,64.683243 &#10;&#9;C319.132111,64.683243 320.394104,64.683243 322.133606,64.683243 &#10;&#9;C322.133606,62.714245 322.100891,60.916981 322.140778,59.121330 &#10;&#9;C322.214508,55.802227 322.032715,52.440948 322.505127,49.176510 &#10;&#9;C323.087128,45.154888 325.869659,42.945362 329.883331,43.368538 &#10;&#9;C333.676758,43.768497 334.923492,46.690418 334.924042,50.227211 &#10;&#9;C334.924713,54.551422 334.929199,58.875748 334.969482,63.199673 &#10;&#9;C334.973816,63.664246 335.226776,64.126495 335.453583,64.890068 &#10;&#9;C336.843750,64.769836 338.214294,64.651291 339.822845,64.512169 &#10;&#9;C339.822845,58.832058 340.071838,53.515503 339.765656,48.231113 &#10;&#9;C339.281616,39.876297 331.973145,36.236366 324.749847,40.527115 &#10;&#9;C323.985535,40.981129 323.177032,41.360676 321.848602,42.058758 &#10;&#9;C321.848602,35.858032 321.848602,30.270050 321.848602,24.700451 &#10;&#9;C317.453949,24.645844 317.453949,24.645844 317.244568,29.784441 &#10;M260.238068,39.853767 &#10;&#9;C252.505554,37.529285 246.318970,39.774574 243.270264,46.011902 &#10;&#9;C240.473129,51.734482 242.285568,59.452396 247.272263,63.053722 &#10;&#9;C252.664383,66.947830 260.294952,65.889214 265.740967,60.484646 &#10;&#9;C264.113708,57.755833 262.603027,57.823727 259.893524,59.695251 &#10;&#9;C254.726974,63.263947 248.337769,60.103737 247.587204,53.704491 &#10;&#9;C254.055878,53.704491 260.485199,53.704491 266.994843,53.704491 &#10;&#9;C267.428558,47.798668 265.981750,43.158463 260.238068,39.853767 &#10;M348.409485,44.089218 &#10;&#9;C344.023651,51.643906 345.454254,59.303352 351.999817,63.311943 &#10;&#9;C358.176086,67.094376 366.479065,65.185036 370.454590,59.068138 &#10;&#9;C374.002930,53.608486 372.823700,46.360092 367.672119,41.965435 &#10;&#9;C362.073303,37.189266 354.976288,37.781811 348.409485,44.089218 &#10;M177.085236,59.335518 &#10;&#9;C180.714249,52.648167 179.741409,46.337467 174.389908,41.851437 &#10;&#9;C169.637695,37.867779 162.603058,37.743439 157.804413,41.558292 &#10;&#9;C151.598785,46.491665 150.834290,55.261051 156.111771,60.973957 &#10;&#9;C161.661377,66.981438 170.708603,66.544022 177.085236,59.335518 &#10;M456.188324,59.285034 &#10;&#9;C456.188324,61.054077 456.188324,62.823116 456.188324,64.678764 &#10;&#9;C458.114258,64.678764 459.377808,64.678764 461.176331,64.678764 &#10;&#9;C461.176331,59.710762 460.944183,54.915661 461.246338,50.154469 &#10;&#9;C461.510193,45.996651 463.962128,43.198883 468.304993,43.345543 &#10;&#9;C472.740784,43.495338 473.904724,46.779091 473.896149,50.667683 &#10;&#9;C473.885986,55.283047 473.893799,59.898449 473.893799,64.869179 &#10;&#9;C475.763275,64.745865 477.124878,64.656052 478.730042,64.550171 &#10;&#9;C478.730042,58.716667 479.076813,53.234066 478.648468,47.812710 &#10;&#9;C478.012573,39.764908 470.704987,36.310284 463.792236,40.481449 &#10;&#9;C462.997986,40.960720 462.246155,41.510265 461.474640,42.027229 &#10;&#9;C461.525238,41.521515 461.575836,41.015804 461.626404,40.510090 &#10;&#9;C459.931641,40.141300 458.236877,39.772511 456.188232,39.326714 &#10;&#9;C456.188232,46.380695 456.188232,52.357315 456.188324,59.285034 &#10;M230.992355,26.988581 &#10;&#9;C230.992355,39.562103 230.992355,52.135628 230.992355,65.053284 &#10;&#9;C233.039551,64.796272 234.417236,64.623314 235.634552,64.470490 &#10;&#9;C235.634552,50.956703 235.634552,37.904079 235.634552,23.573923 &#10;&#9;C233.635712,24.663551 232.318695,25.381500 230.992355,26.988581 &#10;M443.926849,57.410278 &#10;&#9;C443.926849,59.843174 443.926849,62.276066 443.926849,65.067284 &#10;&#9;C445.945618,64.807175 447.318207,64.630325 448.579803,64.467773 &#10;&#9;C448.579803,55.981178 448.579803,47.939404 448.579803,39.761848 &#10;&#9;C446.916748,39.761848 445.546448,39.761848 443.926849,39.761848 &#10;&#9;C443.926849,45.537750 443.926849,50.986595 443.926849,57.410278 &#10;M218.131836,42.938225 &#10;&#9;C218.131836,50.176762 218.131836,57.415298 218.131836,64.678116 &#10;&#9;C220.082977,64.678116 221.349228,64.678116 222.822891,64.678116 &#10;&#9;C222.822891,56.272411 222.822891,48.064911 222.822891,39.857414 &#10;&#9;C222.469620,39.504337 222.116348,39.151264 221.763077,38.798191 &#10;&#9;C220.553055,39.881081 219.343033,40.963966 218.131836,42.938225 &#10;M444.267853,27.815863 &#10;&#9;C444.183594,29.547358 443.807892,31.350590 444.204926,32.963631 &#10;&#9;C444.314209,33.407776 447.075226,33.838543 447.992523,33.267799 &#10;&#9;C448.942078,32.676971 449.865662,30.040945 449.518494,29.729717 &#10;&#9;C448.272247,28.612450 446.483673,28.100094 444.267853,27.815863 &#10;M223.994446,31.268238 &#10;&#9;C222.951309,29.858814 222.083847,28.219030 220.744659,27.197811 &#10;&#9;C220.398834,26.934086 217.979050,28.398342 217.596237,29.459860 &#10;&#9;C217.229782,30.476046 218.220474,33.081612 218.706131,33.105190 &#10;&#9;C220.365448,33.185753 222.065033,32.437004 223.994446,31.268238 &#10;z" stroke="none" opacity="1.000000" fill="#42445A00"/>
<path d="M113.330750,27.054153 &#10;&#9;C117.753075,36.183796 121.766968,45.236485 126.205383,55.246601 &#10;&#9;C130.331573,45.445522 134.130341,36.422161 138.008102,27.211166 &#10;&#9;C140.477219,27.211166 142.896149,27.211166 145.581726,27.211166 &#10;&#9;C145.581726,39.541870 145.581726,51.805611 145.581726,64.591469 &#10;&#9;C144.089203,64.687248 142.561478,64.785294 140.613007,64.910339 &#10;&#9;C140.613007,55.340725 140.613007,46.216187 140.613007,37.091648 &#10;&#9;C140.199463,36.965092 139.785934,36.838535 139.372391,36.711975 &#10;&#9;C138.188019,39.610813 137.010422,42.512440 135.817841,45.407894 &#10;&#9;C133.541931,50.933514 131.337006,56.490925 128.912704,61.950813 &#10;&#9;C128.398087,63.109814 127.085785,64.643326 126.112732,64.663834 &#10;&#9;C125.151802,64.684097 123.728966,63.187931 123.242073,62.044701 &#10;&#9;C119.626839,53.556103 116.194397,44.989658 111.845627,36.586487 &#10;&#9;C111.845627,45.755131 111.845627,54.923775 111.845627,64.575272 &#10;&#9;C109.876434,64.685555 108.360252,64.770470 106.573822,64.870522 &#10;&#9;C106.573822,52.135342 106.573822,39.865078 106.573822,26.977201 &#10;&#9;C108.739258,26.977201 110.830788,26.977201 113.330750,27.054153 &#10;z" stroke="none" opacity="1.000000" fill="#242424"/>
<path d="M61.257423,51.082649 &#10;&#9;C68.778397,38.802025 68.177956,29.428938 59.336792,17.182222 &#10;&#9;C66.993683,12.882600 76.757477,15.098392 82.859772,22.520519 &#10;&#9;C88.939819,29.915592 88.999458,41.031788 82.998398,48.357750 &#10;&#9;C77.018684,55.657654 66.994682,57.941856 59.216919,53.676239 &#10;&#9;C59.829071,52.892731 60.426712,52.127808 61.257423,51.082649 &#10;z" stroke="none" opacity="1.000000" fill="#161616"/>
<path d="M23.223480,42.540985 &#10;&#9;C22.269320,42.212738 21.202656,41.724350 20.954088,40.967342 &#10;&#9;C18.227654,32.664028 21.643934,23.552685 29.310671,18.342144 &#10;&#9;C36.624924,13.371164 46.516491,13.954751 53.367699,19.761465 &#10;&#9;C60.463585,25.775555 62.625927,34.714756 58.875919,43.272198 &#10;&#9;C47.339951,34.168823 35.520836,33.242851 23.223480,42.540985 &#10;z" stroke="none" opacity="1.000000" fill="#151515"/>
<path d="M20.116882,63.667244 &#10;&#9;C20.090372,47.737778 33.210480,38.346367 46.970768,42.895119 &#10;&#9;C45.015244,49.275848 42.236202,55.493340 41.365917,61.967415 &#10;&#9;C40.455734,68.738266 43.733955,74.859940 48.255447,80.055542 &#10;&#9;C36.967587,86.817215 23.458620,79.044746 20.116882,63.667244 &#10;z" stroke="none" opacity="1.000000" fill="#151515"/>
<path d="M80.398499,77.456314 &#10;&#9;C71.981934,83.565224 62.370735,83.907410 55.163471,78.591187 &#10;&#9;C47.675774,73.068100 45.167385,64.280472 48.473484,54.140327 &#10;&#9;C60.795021,63.823734 73.206291,64.231697 85.495781,54.244156 &#10;&#9;C89.345078,62.269596 87.723724,69.873619 80.398499,77.456314 &#10;z" stroke="none" opacity="1.000000" fill="#151515"/>
<path d="M493.896729,64.466064 &#10;&#9;C486.083923,60.877258 483.177856,55.155155 485.204773,47.910404 &#10;&#9;C486.848572,42.035130 492.152161,38.243828 498.435059,38.978703 &#10;&#9;C500.944794,39.272255 503.331451,40.618046 504.926880,41.184196 &#10;&#9;C507.003387,40.384861 508.687653,39.736515 511.005676,38.844208 &#10;&#9;C511.005676,48.802944 511.466461,57.766449 510.875488,66.660057 &#10;&#9;C510.289520,75.478111 498.930847,80.284203 489.669617,76.078880 &#10;&#9;C488.198151,75.410713 486.890411,74.382050 485.057556,73.240059 &#10;&#9;C486.212952,71.734566 487.144470,70.520821 488.166321,69.189369 &#10;&#9;C492.755493,72.625397 497.721710,74.958099 502.470764,71.553040 &#10;&#9;C504.914581,69.800819 505.723175,65.767937 507.176331,62.948715 &#10;&#9;C502.111176,63.607479 498.187042,64.117844 493.896729,64.466064 &#10;M504.399475,57.854195 &#10;&#9;C504.986023,56.332111 505.879700,54.852325 506.096283,53.279305 &#10;&#9;C506.573578,49.813766 506.095795,46.100086 502.498474,44.827095 &#10;&#9;C499.826569,43.881603 495.755920,43.410057 493.812225,44.812210 &#10;&#9;C491.637634,46.380943 490.146149,50.301250 490.145996,53.198326 &#10;&#9;C490.145630,60.022057 496.924316,62.430904 504.399475,57.854195 &#10;z" stroke="none" opacity="1.000000" fill="#1D1D1D"/>
<path d="M191.473663,62.422123 &#10;&#9;C189.585846,63.293762 188.031998,64.381226 186.478134,65.468689 &#10;&#9;C186.073807,65.108864 185.669464,64.749039 185.265137,64.389214 &#10;&#9;C185.265137,51.921757 185.181473,39.452751 185.412231,26.989571 &#10;&#9;C185.432281,25.905695 187.523819,24.860174 188.653152,23.796841 &#10;&#9;C189.044174,24.072271 189.435211,24.347702 189.826233,24.623131 &#10;&#9;C189.826233,30.217291 189.826233,35.811451 189.826233,41.167053 &#10;&#9;C193.744171,40.374924 197.526535,38.582527 200.831039,39.229771 &#10;&#9;C204.167221,39.883217 207.863861,42.336533 209.918182,45.103443 &#10;&#9;C213.686340,50.178703 212.277634,57.743359 207.849670,62.014217 &#10;&#9;C203.764023,65.954910 197.328934,66.205124 191.473663,62.422123 &#10;M190.160980,52.390945 &#10;&#9;C190.697662,56.975601 192.697952,60.322025 197.720062,60.775627 &#10;&#9;C201.369324,61.105232 204.843445,59.789402 205.617477,56.198410 &#10;&#9;C206.284256,53.105061 206.197891,48.982330 204.586761,46.540462 &#10;&#9;C203.306976,44.600769 199.166519,43.642075 196.389328,43.807934 &#10;&#9;C192.157837,44.060638 190.579315,47.658802 190.160980,52.390945 &#10;z" stroke="none" opacity="1.000000" fill="#212121"/>
<path d="M400.873413,42.051044 &#10;&#9;C402.404266,46.285896 404.981628,50.377758 404.653076,54.221226 &#10;&#9;C403.750458,64.780785 391.839813,68.735542 383.269531,61.534748 &#10;&#9;C383.269531,65.028969 383.269531,67.870255 383.269531,70.711533 &#10;&#9;C383.269531,73.522430 383.269531,76.333328 383.269531,79.494858 &#10;&#9;C381.660675,79.494858 380.321686,79.494858 378.775421,79.494858 &#10;&#9;C378.775421,66.258804 378.775421,53.182941 378.775421,39.088856 &#10;&#9;C380.822021,39.784618 382.414734,40.326077 384.992981,41.202572 &#10;&#9;C389.269867,38.134647 394.912292,37.313351 400.873413,42.051044 &#10;M390.004425,43.448669 &#10;&#9;C385.767639,44.253979 383.331757,47.171867 383.554718,51.107533 &#10;&#9;C383.715576,53.946507 385.017120,57.712082 387.121948,59.169334 &#10;&#9;C389.203369,60.610401 394.010040,60.919838 395.676697,59.477959 &#10;&#9;C397.999481,57.468517 399.629639,53.337906 399.541931,50.170860 &#10;&#9;C399.408875,45.366589 395.501984,43.304455 390.004425,43.448669 &#10;z" stroke="none" opacity="1.000000" fill="#181818"/>
<path d="M435.911469,58.713642 &#10;&#9;C430.632996,66.261803 424.444672,67.318726 415.932343,61.984009 &#10;&#9;C415.932343,65.189049 415.932343,68.061714 415.932343,70.934372 &#10;&#9;C415.932343,73.729591 415.932343,76.524811 415.932343,79.581413 &#10;&#9;C414.163452,79.581413 412.794189,79.581413 411.216644,79.581413 &#10;&#9;C411.216644,66.309990 411.216644,53.235485 411.216644,39.106762 &#10;&#9;C413.274078,39.764626 415.000427,40.316624 417.709045,41.182709 &#10;&#9;C422.913269,38.039932 428.495789,37.873028 432.870056,41.498463 &#10;&#9;C437.368561,45.226940 438.549927,51.472946 435.911469,58.713642 &#10;M424.449554,60.821457 &#10;&#9;C429.162292,60.514126 431.683228,57.896019 432.194000,53.308392 &#10;&#9;C432.631744,49.376850 431.820862,45.491497 427.721558,44.367718 &#10;&#9;C425.039307,43.632412 420.895111,43.751507 419.120392,45.369114 &#10;&#9;C417.107269,47.203972 416.164764,51.172211 416.283539,54.152100 &#10;&#9;C416.443207,58.157894 419.450714,60.524746 424.449554,60.821457 &#10;z" stroke="none" opacity="1.000000" fill="#1B1B1B"/>
<path d="M306.816650,33.765907 &#10;&#9;C303.448730,32.972034 300.400482,31.285427 297.406036,31.376060 &#10;&#9;C295.773010,31.425489 293.122528,34.390697 292.962585,36.218643 &#10;&#9;C292.805237,38.017166 294.828674,40.599297 296.597107,41.824390 &#10;&#9;C298.840912,43.378815 301.797729,43.897556 304.437622,44.888119 &#10;&#9;C308.807953,46.527996 311.187317,49.565754 311.020752,54.364025 &#10;&#9;C310.845642,59.408508 308.207733,62.862896 303.727722,64.745277 &#10;&#9;C297.673340,67.289185 291.265503,65.710175 286.283325,60.713657 &#10;&#9;C287.469421,59.506424 288.657074,58.297661 289.956116,56.975487 &#10;&#9;C293.456085,60.114456 297.332245,62.183060 301.683533,59.768730 &#10;&#9;C303.415619,58.807659 305.012360,56.412605 305.302734,54.466278 &#10;&#9;C305.492828,53.192276 303.508667,51.072697 301.997284,50.185547 &#10;&#9;C299.600311,48.778606 296.776978,48.104336 294.146820,47.087021 &#10;&#9;C289.434753,45.264427 286.886475,41.805717 287.072937,36.759296 &#10;&#9;C287.258911,31.726238 290.127899,28.320440 294.822052,26.858990 &#10;&#9;C300.523376,25.083969 305.937744,25.539127 310.621887,30.441772 &#10;&#9;C309.329346,31.625778 308.244049,32.619965 306.816650,33.765907 &#10;z" stroke="none" opacity="1.000000" fill="#1E1E1E"/>
<path d="M317.244568,29.326748 &#10;&#9;C317.453949,24.645844 317.453949,24.645844 321.848602,24.700451 &#10;&#9;C321.848602,30.270050 321.848602,35.858032 321.848602,42.058758 &#10;&#9;C323.177032,41.360676 323.985535,40.981129 324.749847,40.527115 &#10;&#9;C331.973145,36.236366 339.281616,39.876297 339.765656,48.231113 &#10;&#9;C340.071838,53.515503 339.822845,58.832058 339.822845,64.512169 &#10;&#9;C338.214294,64.651291 336.843750,64.769836 335.453583,64.890068 &#10;&#9;C335.226776,64.126495 334.973816,63.664246 334.969482,63.199673 &#10;&#9;C334.929199,58.875748 334.924713,54.551422 334.924042,50.227211 &#10;&#9;C334.923492,46.690418 333.676758,43.768497 329.883331,43.368538 &#10;&#9;C325.869659,42.945362 323.087128,45.154888 322.505127,49.176510 &#10;&#9;C322.032715,52.440948 322.214508,55.802227 322.140778,59.121330 &#10;&#9;C322.100891,60.916981 322.133606,62.714245 322.133606,64.683243 &#10;&#9;C320.394104,64.683243 319.132111,64.683243 317.244568,64.683243 &#10;&#9;C317.244568,52.970127 317.244568,41.377285 317.244568,29.326748 &#10;z" stroke="none" opacity="1.000000" fill="#222222"/>
<path d="M260.616455,39.976528 &#10;&#9;C265.981750,43.158463 267.428558,47.798668 266.994843,53.704491 &#10;&#9;C260.485199,53.704491 254.055878,53.704491 247.587204,53.704491 &#10;&#9;C248.337769,60.103737 254.726974,63.263947 259.893524,59.695251 &#10;&#9;C262.603027,57.823727 264.113708,57.755833 265.740540,60.488129 &#10;&#9;C260.294952,65.889214 252.664383,66.947830 247.272263,63.053722 &#10;&#9;C242.285568,59.452396 240.473129,51.734482 243.270264,46.011902 &#10;&#9;C246.318970,39.774574 252.505554,37.529285 260.616455,39.976528 &#10;M253.619781,49.985691 &#10;&#9;C256.361694,49.985691 259.103607,49.985691 262.112885,49.985691 &#10;&#9;C261.678009,45.347107 259.642212,42.999767 255.470612,42.888180 &#10;&#9;C250.881821,42.765434 248.070099,44.945461 247.038879,49.985683 &#10;&#9;C249.144897,49.985683 250.922485,49.985683 253.619781,49.985691 &#10;z" stroke="none" opacity="1.000000" fill="#1D1D1D"/>
<path d="M348.668091,43.809883 &#10;&#9;C354.976288,37.781811 362.073303,37.189266 367.672119,41.965435 &#10;&#9;C372.823700,46.360092 374.002930,53.608486 370.454590,59.068138 &#10;&#9;C366.479065,65.185036 358.176086,67.094376 351.999817,63.311943 &#10;&#9;C345.454254,59.303352 344.023651,51.643906 348.668091,43.809883 &#10;M359.382568,43.244877 &#10;&#9;C358.563690,43.366840 357.714417,43.388912 356.930908,43.627182 &#10;&#9;C352.260315,45.047501 350.058228,49.056320 351.072418,54.197899 &#10;&#9;C351.942017,58.606682 355.727814,61.354782 360.185547,60.813145 &#10;&#9;C364.722717,60.261845 367.447571,56.686256 367.299591,51.554802 &#10;&#9;C367.163544,46.838661 364.620392,44.264622 359.382568,43.244877 &#10;z" stroke="none" opacity="1.000000" fill="#1A1A1A"/>
<path d="M176.874603,59.657913 &#10;&#9;C170.708603,66.544022 161.661377,66.981438 156.111771,60.973957 &#10;&#9;C150.834290,55.261051 151.598785,46.491665 157.804413,41.558292 &#10;&#9;C162.603058,37.743439 169.637695,37.867779 174.389908,41.851437 &#10;&#9;C179.741409,46.337467 180.714249,52.648167 176.874603,59.657913 &#10;M169.404541,60.121357 &#10;&#9;C175.568863,55.877251 175.853287,47.113651 169.846451,44.277325 &#10;&#9;C166.423950,42.661289 162.977280,42.749470 160.174698,45.605198 &#10;&#9;C157.124283,48.713455 157.060883,52.528336 158.697433,56.241165 &#10;&#9;C160.622849,60.609371 164.305801,61.514488 169.404541,60.121357 &#10;z" stroke="none" opacity="1.000000" fill="#191919"/>
<path d="M456.188293,58.809483 &#10;&#9;C456.188232,52.357315 456.188232,46.380695 456.188232,39.326714 &#10;&#9;C458.236877,39.772511 459.931641,40.141300 461.626404,40.510090 &#10;&#9;C461.575836,41.015804 461.525238,41.521515 461.474640,42.027229 &#10;&#9;C462.246155,41.510265 462.997986,40.960720 463.792236,40.481449 &#10;&#9;C470.704987,36.310284 478.012573,39.764908 478.648468,47.812710 &#10;&#9;C479.076813,53.234066 478.730042,58.716667 478.730042,64.550171 &#10;&#9;C477.124878,64.656052 475.763275,64.745865 473.893799,64.869179 &#10;&#9;C473.893799,59.898449 473.885986,55.283047 473.896149,50.667683 &#10;&#9;C473.904724,46.779091 472.740784,43.495338 468.304993,43.345543 &#10;&#9;C463.962128,43.198883 461.510193,45.996651 461.246338,50.154469 &#10;&#9;C460.944183,54.915661 461.176331,59.710762 461.176331,64.678764 &#10;&#9;C459.377808,64.678764 458.114258,64.678764 456.188324,64.678764 &#10;&#9;C456.188324,62.823116 456.188324,61.054077 456.188293,58.809483 &#10;z" stroke="none" opacity="1.000000" fill="#222222"/>
<path d="M230.997009,26.544014 &#10;&#9;C232.318695,25.381500 233.635712,24.663551 235.634552,23.573923 &#10;&#9;C235.634552,37.904079 235.634552,50.956703 235.634552,64.470490 &#10;&#9;C234.417236,64.623314 233.039551,64.796272 230.992355,65.053284 &#10;&#9;C230.992355,52.135628 230.992355,39.562103 230.997009,26.544014 &#10;z" stroke="none" opacity="1.000000" fill="#1F1F1F"/>
<path d="M443.926849,56.922859 &#10;&#9;C443.926849,50.986595 443.926849,45.537750 443.926849,39.761848 &#10;&#9;C445.546448,39.761848 446.916748,39.761848 448.579803,39.761848 &#10;&#9;C448.579803,47.939404 448.579803,55.981178 448.579803,64.467773 &#10;&#9;C447.318207,64.630325 445.945618,64.807175 443.926849,65.067284 &#10;&#9;C443.926849,62.276066 443.926849,59.843174 443.926849,56.922859 &#10;z" stroke="none" opacity="1.000000" fill="#242424"/>
<path d="M218.132416,42.492538 &#10;&#9;C219.343033,40.963966 220.553055,39.881081 221.763077,38.798191 &#10;&#9;C222.116348,39.151264 222.469620,39.504337 222.822891,39.857414 &#10;&#9;C222.822891,48.064911 222.822891,56.272411 222.822891,64.678116 &#10;&#9;C221.349228,64.678116 220.082977,64.678116 218.131836,64.678116 &#10;&#9;C218.131836,57.415298 218.131836,50.176762 218.132416,42.492538 &#10;z" stroke="none" opacity="1.000000" fill="#232323"/>
<path d="M444.583984,27.587471 &#10;&#9;C446.483673,28.100094 448.272247,28.612450 449.518494,29.729717 &#10;&#9;C449.865662,30.040945 448.942078,32.676971 447.992523,33.267799 &#10;&#9;C447.075226,33.838543 444.314209,33.407776 444.204926,32.963631 &#10;&#9;C443.807892,31.350590 444.183594,29.547358 444.583984,27.587471 &#10;z" stroke="none" opacity="1.000000" fill="#212121"/>
<path d="M223.871857,31.636448 &#10;&#9;C222.065033,32.437004 220.365448,33.185753 218.706131,33.105190 &#10;&#9;C218.220474,33.081612 217.229782,30.476046 217.596237,29.459860 &#10;&#9;C217.979050,28.398342 220.398834,26.934086 220.744659,27.197811 &#10;&#9;C222.083847,28.219030 222.951309,29.858814 223.871857,31.636448 &#10;z" stroke="none" opacity="1.000000" fill="#1E1E1E"/>
<path d="M504.119812,58.162781 &#10;&#9;C496.924316,62.430904 490.145630,60.022057 490.145996,53.198326 &#10;&#9;C490.146149,50.301250 491.637634,46.380943 493.812225,44.812210 &#10;&#9;C495.755920,43.410057 499.826569,43.881603 502.498474,44.827095 &#10;&#9;C506.095795,46.100086 506.573578,49.813766 506.096283,53.279305 &#10;&#9;C505.879700,54.852325 504.986023,56.332111 504.119812,58.162781 &#10;z" stroke="none" opacity="1.000000" fill="#F4F4F4"/>
<path d="M190.160461,52.001106 &#10;&#9;C190.579315,47.658802 192.157837,44.060638 196.389328,43.807934 &#10;&#9;C199.166519,43.642075 203.306976,44.600769 204.586761,46.540462 &#10;&#9;C206.197891,48.982330 206.284256,53.105061 205.617477,56.198410 &#10;&#9;C204.843445,59.789402 201.369324,61.105232 197.720062,60.775627 &#10;&#9;C192.697952,60.322025 190.697662,56.975601 190.160461,52.001106 &#10;z" stroke="none" opacity="1.000000" fill="#F4F4F4"/>
<path d="M390.378632,43.375877 &#10;&#9;C395.501984,43.304455 399.408875,45.366589 399.541931,50.170860 &#10;&#9;C399.629639,53.337906 397.999481,57.468517 395.676697,59.477959 &#10;&#9;C394.010040,60.919838 389.203369,60.610401 387.121948,59.169334 &#10;&#9;C385.017120,57.712082 383.715576,53.946507 383.554718,51.107533 &#10;&#9;C383.331757,47.171867 385.767639,44.253979 390.378632,43.375877 &#10;z" stroke="none" opacity="1.000000" fill="#F4F4F4"/>
<path d="M424.059662,60.820721 &#10;&#9;C419.450714,60.524746 416.443207,58.157894 416.283539,54.152100 &#10;&#9;C416.164764,51.172211 417.107269,47.203972 419.120392,45.369114 &#10;&#9;C420.895111,43.751507 425.039307,43.632412 427.721558,44.367718 &#10;&#9;C431.820862,45.491497 432.631744,49.376850 432.194000,53.308392 &#10;&#9;C431.683228,57.896019 429.162292,60.514126 424.059662,60.820721 &#10;z" stroke="none" opacity="1.000000" fill="#F4F4F4"/>
<path d="M253.159927,49.985687 &#10;&#9;C250.922485,49.985683 249.144897,49.985683 247.038879,49.985683 &#10;&#9;C248.070099,44.945461 250.881821,42.765434 255.470612,42.888180 &#10;&#9;C259.642212,42.999767 261.678009,45.347107 262.112885,49.985691 &#10;&#9;C259.103607,49.985691 256.361694,49.985691 253.159927,49.985687 &#10;z" stroke="none" opacity="1.000000" fill="#F7F7F7"/>
<path d="M359.763702,43.300697 &#10;&#9;C364.620392,44.264622 367.163544,46.838661 367.299591,51.554802 &#10;&#9;C367.447571,56.686256 364.722717,60.261845 360.185547,60.813145 &#10;&#9;C355.727814,61.354782 351.942017,58.606682 351.072418,54.197899 &#10;&#9;C350.058228,49.056320 352.260315,45.047501 356.930908,43.627182 &#10;&#9;C357.714417,43.388912 358.563690,43.366840 359.763702,43.300697 &#10;z" stroke="none" opacity="1.000000" fill="#F4F4F4"/>
<path d="M169.041046,60.264198 &#10;&#9;C164.305801,61.514488 160.622849,60.609371 158.697433,56.241165 &#10;&#9;C157.060883,52.528336 157.124283,48.713455 160.174698,45.605198 &#10;&#9;C162.977280,42.749470 166.423950,42.661289 169.846451,44.277325 &#10;&#9;C175.853287,47.113651 175.568863,55.877251 169.041046,60.264198 &#10;z" stroke="none" opacity="1.000000" fill="#F4F4F4"/>
</svg>